<svg width="400" height="400" viewBox="0 0 400 400" fill="none" xmlns="http://www.w3.org/2000/svg">
  <g transform="translate(100,0) scale(8.3)">
    <path d="M21.2356 13.7506C22.9643 15.8964 24 18.6307 24 21.6085C24 28.5038 18.4466 34.0935 11.5961 34.0935C6.29976 34.0935 1.7787 30.7522 0 26.0496C1.85992 29.1595 5.2463 31.2398 9.11538 31.2398C14.9872 31.2398 19.7473 26.4486 19.7473 20.5384C19.7473 17.0741 18.1118 13.9943 15.5757 12.0385C13.9986 10.523 13.9986 10.523 13.0853 9.21258C12.3627 7.92125 11.9506 6.43052 11.9506 4.84289C11.9506 3.05745 12.4719 1.39456 13.3696 0C13.3686 0.0684243 13.3681 0.136965 13.3681 0.205619C13.3681 4.82293 15.5471 8.92799 18.9264 11.5359C19.8329 12.2054 20.5216 12.8644 21.2356 13.7506Z" fill="url(#paint0_linear_hydrox)"></path>
    <path d="M0.363139 18.4421C0.127045 19.2107 0 20.0269 0 20.8727C0 25.449 3.71934 29.1589 8.30737 29.1589C8.53108 29.1589 8.75272 29.15 8.97196 29.1327V29.1261C5.61357 28.7935 2.99066 25.9673 2.99066 22.5299C2.99066 20.1652 5.96283 15.9023 6.94734 12.697C7.18343 11.9284 7.31047 11.1122 7.31047 10.2664C7.31047 9.08846 7.06404 7.9679 6.61979 6.95325C6.63708 7.17152 6.64588 7.39215 6.64588 7.61486C6.64588 10.2934 5.37169 12.6751 3.39493 14.1898C0.856819 16.5652 0.634219 17.5595 0.363139 18.4421Z" fill="url(#paint1_linear_hydrox)"></path>
    <g clip-path="url(#clip0_hydrox)">
      <path fill-rule="evenodd" clip-rule="evenodd" d="M6.16846 15.4766H6.80942C7.64636 15.4766 8.43954 15.8505 8.97215 16.4961L11.7758 19.8945L10.7945 21.084L6.16846 15.4766ZM11.7758 22.2734L14.5797 25.6721C15.1123 26.3177 15.9055 26.6916 16.7424 26.6916H17.3834L12.7571 21.084L11.7758 22.2734Z" fill="#207FEE"></path>
      <path d="M6.30859 26.6915L11.8456 19.98L12.0559 20.2349L6.99679 26.3671C6.82731 26.5726 6.57491 26.6915 6.30859 26.6915Z" fill="#207FEE"></path>
      <path d="M17.2424 15.4766L11.7054 22.1882L11.4951 21.9333L16.5542 15.801C16.7237 15.5956 16.9761 15.4766 17.2424 15.4766Z" fill="#207FEE"></path>
    </g>
  </g>

  <text x="200" y="378" text-anchor="middle" font-family="Arial, Helvetica, sans-serif" font-size="74" font-weight="700" textLength="390" lengthAdjust="spacingAndGlyphs" fill="#207FEE">
    HydroX AI
  </text>

  <defs>
    <linearGradient id="paint0_linear_hydrox" x1="12" y1="0" x2="12" y2="34.0935" gradientUnits="userSpaceOnUse">
      <stop stop-color="#BFDCFF"></stop>
      <stop offset="1" stop-color="#207FEE"></stop>
    </linearGradient>
    <linearGradient id="paint1_linear_hydrox" x1="4.48598" y1="6.95325" x2="4.48598" y2="29.1589" gradientUnits="userSpaceOnUse">
      <stop stop-color="#BFDCFF"></stop>
      <stop offset="1" stop-color="#207FEE"></stop>
    </linearGradient>
    <clipPath id="clip0_hydrox">
      <rect width="11.215" height="11.215" fill="white" transform="translate(6.16846 15.4766)"></rect>
    </clipPath>
  </defs>
</svg>